<?xml version="1.0" encoding="utf-8"?>
<!-- Generator: Adobe Illustrator 16.0.0, SVG Export Plug-In . SVG Version: 6.00 Build 0)  -->
<!DOCTYPE svg PUBLIC "-//W3C//DTD SVG 1.1//EN" "http://www.w3.org/Graphics/SVG/1.1/DTD/svg11.dtd">
<svg version="1.1" id="Layer_1" xmlns="http://www.w3.org/2000/svg" xmlns:xlink="http://www.w3.org/1999/xlink" x="0px" y="0px"
	 width="285.601px" height="274.979px" viewBox="117 241.51 285.601 274.979" enable-background="new 117 241.51 285.601 274.979"
	 xml:space="preserve">
<g>
	<path fill="#F56600" d="M307.766,315.169h-4.136c-10.647,0-20.092,6.84-23.411,16.958l-9.116,27.791
		c-0.339,1.033-1.8,1.037-2.145,0.006l-9.284-27.727c-3.406-10.172-12.933-17.028-23.66-17.028h-4.158
		c-1.994,0-3.36,2.011-2.625,3.864l26.407,66.605c2.337,5.894,8.034,9.763,14.373,9.763c6.368,0,12.085-3.905,14.401-9.838
		l25.984-66.543C311.119,317.168,309.754,315.169,307.766,315.169z"/>
	<path fill="#F56600" d="M229.891,373.905h-20.912c-0.624,0-1.13-0.506-1.13-1.13v-40.456c0-9.472-7.679-17.15-17.151-17.15h-2.824
		c-1.56,0-2.824,1.265-2.824,2.824v74.584c0,1.56,1.265,2.824,2.824,2.824h52.217c3.12,0,5.649-2.529,5.649-5.648
		C245.74,381,238.644,373.905,229.891,373.905z"/>
	
		<linearGradient id="SVGID_1_" gradientUnits="userSpaceOnUse" x1="3510.5549" y1="752.8738" x2="1067.9612" y2="-1296.6987" gradientTransform="matrix(0.0905 0 0 -0.0905 8.855 305.8051)">
		<stop  offset="0" style="stop-color:#F56600"/>
		<stop  offset="0.4902" style="stop-color:#FAB27F"/>
		<stop  offset="1" style="stop-color:#FFFFFF"/>
	</linearGradient>
	<path fill="url(#SVGID_1_)" d="M329.65,355.493c0-0.781-0.012-1.613-0.035-2.618c-0.075-2.365-0.262-4.796-0.554-7.219
		c-2.117-23.908-12.075-47.085-28.038-65.259c-12.475-14.202-28.219-24.991-45.601-31.271c-37.622-5.948-75.841-8.426-114.515-7.384
		c-14.71,0.396-25.801,13.615-23.637,28.171c7.873,52.96,22.221,103.897,42.894,152.446l0.161-0.068
		c-13.421-32.66-7.722-72.11,14.876-102.966l0.004,0.002c5.428-7.412,11.701-14.12,18.645-19.934l0.163-0.136
		c0.636-0.53,1.277-1.053,1.925-1.568l0.23-0.185c0.559-0.441,1.123-0.876,1.69-1.307c0.823-0.698,1.66-1.38,2.512-2.043
		l-0.016-0.021l0.022,0.017c13.154-10.231,29.685-16.327,47.641-16.327c42.896,0,77.669,34.771,77.669,77.667
		c0,42.895-34.773,77.668-77.669,77.668c-9.821,0-19.214-1.827-27.863-5.153c10.936,4.732,22.796,7.759,34.896,8.851
		c10.749-0.918,21.036-3.899,30.575-8.858l-0.003-0.008C312.784,413.808,329.65,386.048,329.65,355.493L329.65,355.493z"/>
	
		<linearGradient id="SVGID_2_" gradientUnits="userSpaceOnUse" x1="1230.1321" y1="-1703.3757" x2="3945.092" y2="-135.8956" gradientTransform="matrix(0.0905 0 0 -0.0905 8.855 305.8051)">
		<stop  offset="0" style="stop-color:#F56600"/>
		<stop  offset="0.4902" style="stop-color:#FAB27F"/>
		<stop  offset="1" style="stop-color:#FFFFFF"/>
	</linearGradient>
	<path fill="url(#SVGID_2_)" d="M349.548,397.698c-15.174,19.659-37.289,32.349-61.393,37.212c-0.243,0.049-0.486,0.101-0.729,0.147
		c-0.343,0.067-0.687,0.128-1.03,0.191c-0.501,0.092-1,0.186-1.502,0.271c-0.118,0.02-0.238,0.038-0.357,0.058
		c-4.649,0.777-9.358,1.271-14.091,1.473c-0.107,0.005-0.217,0.008-0.325,0.012c-0.65,0.025-1.302,0.047-1.953,0.063
		c-0.462,0.01-0.925,0.015-1.388,0.02c-0.285,0.003-0.57,0.008-0.855,0.009c-13.574,0.031-27.295-2.359-40.359-7.296
		c-31.945-9.633-55.214-39.28-55.214-74.367c0-27.449,14.24-51.573,35.736-65.387c-20.752,12.899-37.053,32.815-45.979,56.238
		c-9.071,23.805-9.701,49.195-1.799,71.605c12.445,29.869,27.264,58.846,44.446,86.838c7.699,12.541,24.691,15.538,36.215,6.386
		c41.951-33.316,78.906-71.233,110.625-113.437L349.548,397.698z M159.483,348.54L159.483,348.54
		c2.064-5.778,4.604-11.411,7.604-16.825C164.1,337.125,161.555,342.758,159.483,348.54z"/>
	
		<linearGradient id="SVGID_3_" gradientUnits="userSpaceOnUse" x1="4484.5" y1="-121.512" x2="2540.616" y2="-464.2623" gradientTransform="matrix(0.0905 0 0 -0.0905 8.855 305.8051)">
		<stop  offset="0" style="stop-color:#F56600"/>
		<stop  offset="0.4902" style="stop-color:#FAB27F"/>
		<stop  offset="1" style="stop-color:#FFFFFF"/>
	</linearGradient>
	<path fill="url(#SVGID_3_)" d="M387.055,285.145c-43.146-17.035-87.409-29.096-132.53-36.161l-0.042,0.162
		c5.511,1.938,10.932,4.364,16.111,7.21l0.053,0.019c19.944,3.696,39.855,8.411,59.181,14.012
		c27.372,66.504,6.995,117.089-21.209,142.261c-7.027,6.272-14.813,11.332-23.143,15.038l-0.002-0.004l-0.177,0.084l0.003,0.007
		c-9.451,4.887-19.677,7.975-30.286,8.884c-0.003,0-0.003,0-0.003,0c3.485,0.372,6.965,0.669,10.459,0.669
		c13.397,0,26.714-2.313,39.117-6.842c16.073-5.868,30.19-15.348,41.021-27.507c20.063-26.109,38.098-53.889,54.024-83.275
		C406.645,306.762,400.743,290.549,387.055,285.145L387.055,285.145z M300.097,425.095L300.097,425.095
		c4.071-2.65,7.98-5.645,11.662-8.93c17.926-16.002,29.662-37.899,33.939-63.328c4.197-24.956,0.698-52.869-10.119-80.746
		c10.602,3.184,21.29,6.71,31.773,10.483c4.77,40.064-14.134,102.321-53.041,133.154
		C309.765,419.334,304.997,422.473,300.097,425.095L300.097,425.095z M395.645,317.54L395.645,317.54
		c-14.833,27.366-31.771,53.724-50.344,78.335c-9.645,12.233-22.028,22.288-35.958,29.221c2.702-1.751,5.349-3.651,7.897-5.672
		c20.019-15.863,36.479-40.745,46.352-70.059c7.543-22.399,10.632-45.467,8.704-64.997c4.417,1.631,8.821,3.313,13.096,5.001
		c5.315,2.099,9.49,6.395,11.451,11.782C398.804,306.541,398.367,312.513,395.645,317.54z"/>
</g>
</svg>
