<svg xmlns="http://www.w3.org/2000/svg" xmlns:xlink="http://www.w3.org/1999/xlink" width="100%" height="100%" version="1.1" viewBox="0 0 22337.44 9820.52">
  <defs>
    <linearGradient id="id0" gradientUnits="userSpaceOnUse" x1="10695.2" y1="3076.36" x2="4414.65" y2="4183.79">
      <stop offset="0" style="stop-opacity:1; stop-color:#F56600" />
      <stop offset="0.490196" style="stop-opacity:0.501961; stop-color:#F56600" />
      <stop offset="1" style="stop-opacity:0; stop-color:#F56600" />
    </linearGradient>
    <linearGradient id="id1" gradientUnits="userSpaceOnUse" xlink:href="#id0" x1="7743.17" y1="177.2" x2="-148.68"
      y2="6799.26">
    </linearGradient>
    <linearGradient id="id2" gradientUnits="userSpaceOnUse" xlink:href="#id0" x1="406.99" y1="8310.19" x2="9178.82"
      y2="3245.76">
    </linearGradient>
  </defs>
  <g id="Camada_x0020_1">
    <g id="_1930203567728">
      <path class="fil0" style="fill: #F56600;"
        d="M6812.94 2630.6l-147.68 0c-380.29,0 -717.56,244.3 -836.11,605.66l-325.58 992.49c-12.11,36.9 -64.27,37.07 -76.6,0.23l-331.57 -990.23c-121.64,-363.28 -461.87,-608.15 -844.98,-608.15l-148.49 0c-71.23,0 -120.03,71.83 -93.77,138.04l943.11 2378.7c83.45,210.46 286.9,348.66 513.3,348.66 227.44,0 431.61,-139.46 514.34,-351.33l927.98 -2376.52c25.83,-66.14 -22.95,-137.55 -93.95,-137.55z" />
      <path class="fil0" style="fill: #F56600;"
        d="M4031.77 4728.27l-746.88 0c-22.29,0 -40.35,-18.06 -40.35,-40.34l0 -1444.81c0,-338.28 -274.24,-612.52 -612.52,-612.52l-100.87 0c-55.71,0 -100.87,45.16 -100.87,100.86l0 2663.68c0,55.7 45.16,100.86 100.87,100.86l1864.87 0c111.42,0 201.73,-90.32 201.73,-201.73 0,-312.59 -253.39,-566 -565.98,-566z" />
      <path class="fil1" style="fill: url(#id1);"
        d="M7594.49 4070.71c0,-27.89 -0.4,-57.58 -1.25,-93.5 -2.69,-84.45 -9.35,-171.25 -19.78,-257.79 -75.63,-853.86 -431.25,-1681.55 -1001.35,-2330.61 -445.5,-507.23 -1007.79,-892.56 -1628.57,-1116.86 -1343.6,-212.43 -2708.53,-300.9 -4089.69,-263.67 -525.37,14.17 -921.47,486.22 -844.19,1006.07 281.18,1891.42 793.6,3710.58 1531.87,5444.39l5.79 -2.41c-479.33,-1166.42 -275.78,-2575.32 531.25,-3677.31l0.14 0.09c193.88,-264.73 417.89,-504.25 665.86,-711.88l5.85 -4.88c22.68,-18.92 45.6,-37.57 68.73,-56l8.25 -6.58c19.93,-15.79 40.1,-31.3 60.35,-46.7 29.4,-24.9 59.29,-49.26 89.72,-72.94l-0.57 -0.8 0.79 0.65c469.8,-365.43 1060.17,-583.15 1701.45,-583.15 1531.93,0 2773.8,1241.87 2773.8,2773.81 0,1531.92 -1241.87,2773.79 -2773.8,2773.79 -350.76,0 -686.22,-65.27 -995.13,-184.05 390.54,169.03 814.12,277.1 1246.27,316.08 383.86,-32.79 751.25,-139.24 1091.96,-316.35l-0.15 -0.28c970.05,-506.43 1572.4,-1497.88 1572.4,-2589.12z" />
      <path class="fil2" style="fill: url(#id2);"
        d="M8305.13 5578.01c-541.9,702.14 -1331.7,1155.32 -2192.55,1328.99 -8.69,1.74 -17.35,3.59 -26.05,5.27 -12.25,2.39 -24.54,4.56 -36.8,6.82 -17.86,3.29 -35.72,6.63 -53.63,9.68 -4.24,0.73 -8.51,1.38 -12.76,2.09 -166.05,27.73 -334.21,45.36 -503.22,52.59 -3.87,0.16 -7.75,0.26 -11.63,0.41 -23.24,0.93 -46.49,1.69 -69.77,2.22 -16.5,0.37 -33.02,0.53 -49.54,0.69 -10.19,0.12 -20.37,0.3 -30.56,0.34 -484.8,1.13 -974.79,-84.29 -1441.38,-260.56 -1140.9,-344.01 -1971.89,-1402.84 -1971.89,-2655.91 0,-980.33 508.58,-1841.86 1276.26,-2335.19 -741.13,460.66 -1323.27,1171.94 -1642.05,2008.47 -323.97,850.11 -346.45,1756.91 -64.25,2557.28 444.47,1066.73 973.7,2101.61 1587.35,3101.28 274.95,447.91 881.81,554.91 1293.37,228.06 1498.22,-1189.85 2818.02,-2544 3950.81,-4051.21l-1.71 -1.32zm-6787.92 -1755.62l0 0c73.74,-206.35 164.47,-407.52 271.56,-600.88 -106.63,193.24 -197.54,394.39 -271.56,600.88z" />
      <path class="fil3" style="fill: url(#id0);"
        d="M9644.65 1558.34c-1540.93,-608.37 -3121.73,-1039.08 -4733.16,-1291.42l-1.46 5.79c196.79,69.24 390.38,155.86 575.38,257.49l1.86 0.66c712.31,132.02 1423.4,300.39 2113.55,500.39 977.55,2375.11 249.84,4181.67 -757.39,5080.67 -251,224.01 -529.07,404.69 -826.57,537.06l-0.05 -0.11 -6.31 2.94 0.11 0.26c-337.55,174.54 -702.75,284.8 -1081.63,317.29 -0.11,-0.01 -0.11,-0.01 -0.11,-0.01 124.46,13.27 248.73,23.89 373.55,23.89 478.47,0 954.02,-82.59 1397.02,-244.32 573.99,-209.59 1078.2,-548.12 1464.99,-982.38 716.52,-932.49 1360.61,-1924.55 1929.41,-2974.08 250.42,-462.07 39.65,-1041.12 -449.19,-1234.12zm-3105.6 4998.15l0 0c145.38,-94.69 285.02,-201.59 416.51,-318.94 640.21,-571.45 1059.34,-1353.52 1212.09,-2261.65 149.9,-891.27 24.93,-1888.17 -361.4,-2883.75 378.65,113.72 760.34,239.66 1134.75,374.41 170.36,1430.86 -504.79,3654.29 -1894.27,4755.42 -162.4,128.71 -332.66,240.86 -507.68,334.51zm3412.35 -3841.21l0 0c-529.71,977.35 -1134.66,1918.66 -1797.96,2797.64 -344.39,436.9 -786.68,795.96 -1284.2,1043.57 96.53,-62.54 191.05,-130.41 282.08,-202.55 714.92,-566.54 1302.81,-1455.14 1655.37,-2502.07 269.39,-799.96 379.68,-1623.78 310.85,-2321.27 157.74,58.27 315.04,118.34 467.68,178.6 189.86,74.96 338.93,228.36 408.98,420.81 70.07,192.45 54.46,405.77 -42.8,585.27z" />
      <path class="fil4" style="fill: #737373;"
        d="M12007.69 5089.36l-762.93 -2028.07 -332.06 0 -773.91 2028.07 425.37 0 156.43 -439.1 708.04 0 150.94 439.1 428.12 0zm-694.32 -801.35l-477.51 0 241.5 -675.11 236.01 675.11zm1278.87 801.35l0 -801.35c0,-222.29 137.22,-378.72 343.05,-378.72 189.36,0 315.6,131.73 315.6,370.49l0 809.58 386.95 0 0 -913.87c0,-200.34 -57.63,-354.02 -170.15,-461.05 -112.52,-107.03 -252.48,-161.92 -414.4,-161.92 -211.31,0 -389.7,104.29 -469.28,249.74l0 -208.57 -378.72 0 0 1495.67 386.95 0zm2516.57 -1317.29c-131.73,-145.45 -290.9,-216.8 -477.51,-216.8 -211.32,0 -389.7,74.1 -529.66,222.29 -139.96,145.45 -211.32,332.07 -211.32,557.1 0,225.04 68.61,414.4 208.57,565.34 139.96,150.94 318.35,225.04 532.41,225.04 189.36,0 348.53,-68.61 477.51,-208.57l0 172.89 367.75 0 0 -1495.67 -367.75 0 0 178.38zm5.49 568.08c0,120.75 -41.16,222.29 -120.75,307.37 -79.59,85.07 -178.38,126.24 -299.13,126.24 -120.75,0 -219.55,-41.17 -299.14,-126.24 -79.58,-85.08 -118,-186.62 -118,-307.37 0,-118 38.42,-219.55 115.26,-304.62 79.58,-85.08 178.38,-126.24 301.88,-126.24 120.75,0 219.54,41.16 299.13,126.24 79.59,85.07 120.75,186.62 120.75,304.62l0 0zm1097.74 -1336.5l-386.95 0 0 2085.71 386.95 0 0 -2085.71zm1029.14 1564.28l-386.96 -974.24 -447.33 0 653.16 1479.2 -30.19 68.61c-74.1,156.43 -170.15,236.02 -290.9,236.02 -57.63,0 -123.49,-16.47 -192.1,-49.4l-65.87 323.83c79.59,49.4 175.64,74.1 288.16,74.1 296.39,0 488.49,-181.13 633.94,-562.59l601.02 -1569.77 -422.63 0 -340.3 974.24zm2143.34 -713.53l0 -260.71 -1229.47 0 0 321.09 710.79 0 -749.21 911.12 0 263.46 1295.33 0 0 -321.09 -762.93 0 735.49 -913.87zm1723.45 452.82c0,-233.27 -71.35,-414.4 -211.32,-548.87 -139.96,-134.47 -321.08,-203.08 -537.89,-203.08 -230.52,0 -417.14,74.1 -562.59,222.29 -145.45,148.2 -216.8,334.81 -216.8,562.59 0,216.81 68.61,403.42 208.57,554.36 139.96,150.94 340.3,227.78 603.75,227.78 247,0 463.8,-68.61 653.16,-205.82l-153.68 -271.69c-128.99,87.81 -321.09,150.93 -483.01,150.93 -236.01,0 -381.46,-107.03 -436.35,-318.34l1122.44 0c8.23,-60.38 13.72,-118.01 13.72,-170.15zm-749.21 -430.86c197.6,0 337.56,118 373.23,312.85l-760.18 0c46.65,-194.85 192.1,-312.85 386.95,-312.85zm1402.36 1213l0 -710.79c0,-310.11 145.45,-452.81 365,-452.81 54.89,0 115.26,10.97 178.38,30.18l32.94 -370.48c-60.38,-21.96 -120.76,-32.94 -181.13,-32.94 -183.87,0 -321.09,79.59 -411.65,241.51l0 -200.34 -370.49 0 0 1495.67 386.95 0z" />
      <path class="fil4" style="fill: #737373;"
        d="M10466.9 6339.14c56.3,0 102.21,-13.86 135.99,-42.45 34.64,-28.58 51.97,-64.96 51.97,-109.13 0,-51.97 -26.85,-91.82 -79.69,-119.53 -12.99,-6.93 -51.1,-22.53 -113.47,-45.91 -27.72,-9.53 -41.58,-23.39 -41.58,-43.31 0,-21.65 21.66,-39.84 53.71,-39.84 38.97,0 75.35,15.59 108.27,46.77l60.63 -78.82c-43.31,-45.04 -98.74,-67.56 -165.44,-67.56 -52.83,0 -96.14,12.99 -128.19,39.84 -32.05,26.85 -48.51,60.63 -48.51,102.21 0,55.43 26.85,96.14 81.42,122.13 10.4,5.2 30.32,13.86 60.64,25.12 30.31,11.26 48.5,18.19 56.3,21.65 22.52,10.4 33.78,24.25 33.78,40.71 0,26.85 -27.72,45.91 -64.97,45.91 -47.64,0 -97.01,-25.12 -130.79,-65.83l-64.96 77.09c47.64,60.63 112.6,90.95 194.89,90.95zm388.91 -558.68c28.58,-28.59 28.58,-78.82 0,-106.54 -28.59,-28.59 -78.82,-28.59 -107.41,0 -28.58,27.72 -28.58,77.95 0,106.54 28.59,28.58 78.82,28.58 107.41,0zm6.93 74.49l-122.13 0 0 472.06 122.13 0 0 -472.06zm266.78 484.19c56.3,0 102.21,-13.86 135.99,-42.45 34.64,-28.58 51.97,-64.96 51.97,-109.13 0,-51.97 -26.85,-91.82 -79.69,-119.53 -12.99,-6.93 -51.1,-22.53 -113.47,-45.91 -27.72,-9.53 -41.58,-23.39 -41.58,-43.31 0,-21.65 21.66,-39.84 53.71,-39.84 38.97,0 75.35,15.59 108.27,46.77l60.63 -78.82c-43.31,-45.04 -98.74,-67.56 -165.44,-67.56 -52.83,0 -96.14,12.99 -128.19,39.84 -32.05,26.85 -48.51,60.63 -48.51,102.21 0,55.43 26.85,96.14 81.42,122.13 10.4,5.2 30.32,13.86 60.64,25.12 30.31,11.26 48.5,18.19 56.3,21.65 22.52,10.4 33.78,24.25 33.78,40.71 0,26.85 -27.72,45.91 -64.97,45.91 -47.64,0 -97.01,-25.12 -130.79,-65.83l-64.96 77.09c47.64,60.63 112.6,90.95 194.89,90.95zm569.07 -135.99c-28.59,16.45 -55.44,24.25 -78.82,24.25 -44.18,0 -66.7,-27.72 -66.7,-83.15l0 -187.09 155.91 0 0 -102.21 -155.91 0 0 -168.04 -121.26 0 0 168.04 -77.96 0 0 102.21 77.09 0 0 194.88c0,122.13 56.3,186.23 164.57,186.23 54.57,0 100.48,-12.99 139.46,-38.98l-36.38 -96.14zm545.68 -123c0,-73.62 -22.52,-130.79 -66.7,-173.23 -44.17,-42.44 -101.34,-64.1 -169.77,-64.1 -72.75,0 -131.65,23.39 -177.56,70.16 -45.91,46.77 -68.43,105.67 -68.43,177.57 0,68.42 21.66,127.32 65.83,174.96 44.18,47.64 107.41,71.89 190.56,71.89 77.95,0 146.38,-21.65 206.15,-64.96l-48.51 -85.75c-40.71,27.72 -101.34,47.64 -152.44,47.64 -74.5,0 -120.4,-33.78 -137.73,-100.48l354.27 0c2.6,-19.05 4.33,-37.24 4.33,-53.7zm-236.47 -135.99c62.37,0 106.54,37.25 117.8,98.75l-239.93 0c14.73,-61.5 60.64,-98.75 122.13,-98.75zm891.29 -102.21c-70.16,0 -134.26,31.19 -168.9,83.16 -25.12,-54.57 -79.69,-83.16 -138.59,-83.16 -61.5,-0.86 -116.93,31.19 -143.78,80.56l0 -67.56 -119.54 0 0 472.06 122.13 0 0 -258.12c0,-70.16 43.31,-114.33 103.08,-114.33 58.03,0 95.28,40.71 95.28,110.87l0 261.58 122.13 0 0 -258.98c0,-69.3 42.44,-113.47 103.94,-113.47 56.3,0 94.41,38.11 94.41,110l0 262.45 122.13 0 0 -284.97c0,-63.23 -18.19,-111.74 -54.57,-147.25 -35.51,-35.51 -81.42,-52.84 -137.72,-52.84zm656.56 69.3c-41.58,-45.91 -91.82,-68.43 -150.72,-68.43 -66.69,0 -122.99,23.39 -167.17,70.16 -44.17,45.91 -66.69,104.81 -66.69,175.83 0,71.03 21.65,130.79 65.82,178.43 44.18,47.64 100.48,71.03 168.04,71.03 59.77,0 110.01,-21.65 150.72,-65.83l0 54.57 116.06 0 0 -472.06 -116.06 0 0 56.3zm1.73 179.3c0,38.11 -12.99,70.16 -38.11,97.01 -25.12,26.85 -56.3,39.84 -94.42,39.84 -38.11,0 -69.29,-12.99 -94.41,-39.84 -25.12,-26.85 -37.24,-58.9 -37.24,-97.01 0,-37.25 12.12,-69.3 36.38,-96.15 25.11,-26.85 56.3,-39.84 95.27,-39.84 38.12,0 69.3,12.99 94.42,39.84 25.12,26.85 38.11,58.9 38.11,96.15l0 0zm790.81 -181.03c-38.98,-44.18 -86.62,-66.7 -143.79,-66.7 -66.69,0 -122.13,23.39 -167.17,71.03 -44.17,47.64 -66.69,106.54 -66.69,176.7 0,71.02 22.52,129.92 66.69,177.56 44.18,46.77 100.48,70.16 167.17,70.16 59.77,0 108.27,-23.39 146.38,-69.29l0 58.03 119.54 0 0 -658.29 -122.13 0 0 240.8zm6.06 181.03c0,38.97 -12.13,71.02 -36.38,97.87 -24.25,25.99 -55.43,38.98 -94.41,38.98 -38.98,0 -70.16,-12.99 -95.28,-38.98 -24.25,-26.85 -36.38,-58.9 -36.38,-97.87 0,-38.12 12.13,-70.16 36.38,-96.15 25.12,-26.85 56.3,-39.84 95.28,-39.84 38.98,0 70.16,12.99 94.41,39.84 24.25,25.99 36.38,58.03 36.38,96.15zm685.14 -10.4c0,-73.62 -22.52,-130.79 -66.7,-173.23 -44.17,-42.44 -101.34,-64.1 -169.77,-64.1 -72.75,0 -131.65,23.39 -177.56,70.16 -45.91,46.77 -68.43,105.67 -68.43,177.57 0,68.42 21.66,127.32 65.83,174.96 44.18,47.64 107.41,71.89 190.56,71.89 77.95,0 146.38,-21.65 206.15,-64.96l-48.51 -85.75c-40.71,27.72 -101.34,47.64 -152.44,47.64 -74.5,0 -120.4,-33.78 -137.73,-100.48l354.27 0c2.6,-19.05 4.33,-37.24 4.33,-53.7zm-236.47 -135.99c62.37,0 106.54,37.25 117.8,98.75l-239.93 0c14.73,-61.5 60.64,-98.75 122.13,-98.75zm1105.23 -102.21c-70.16,0 -134.26,31.19 -168.9,83.16 -25.12,-54.57 -79.69,-83.16 -138.59,-83.16 -61.5,-0.86 -116.93,31.19 -143.78,80.56l0 -67.56 -119.54 0 0 472.06 122.13 0 0 -258.12c0,-70.16 43.31,-114.33 103.08,-114.33 58.03,0 95.28,40.71 95.28,110.87l0 261.58 122.13 0 0 -258.98c0,-69.3 42.44,-113.47 103.94,-113.47 56.3,0 94.41,38.11 94.41,110l0 262.45 122.13 0 0 -284.97c0,-63.23 -18.19,-111.74 -54.57,-147.25 -35.51,-35.51 -81.42,-52.84 -137.72,-52.84zm271.98 248.6c0,70.16 23.38,129.05 71.02,176.69 47.64,47.64 108.27,71.9 181.9,71.9 73.62,0 134.25,-24.26 181.89,-71.9 47.64,-47.64 71.03,-106.53 71.03,-176.69 0,-69.3 -23.39,-128.2 -71.03,-175.84 -47.64,-48.5 -108.27,-72.76 -181.89,-72.76 -73.63,0 -134.26,24.26 -181.9,72.76 -47.64,47.64 -71.02,106.54 -71.02,175.84zm159.37 96.14c-25.12,-26.85 -37.24,-58.9 -37.24,-96.14 0,-37.25 12.12,-69.3 37.24,-95.28 25.12,-25.99 56.3,-38.98 93.55,-38.98 37.24,0 67.56,12.99 92.68,38.98 25.12,25.98 38.11,58.03 38.11,95.28 0,37.24 -12.99,69.29 -38.11,96.14 -25.12,25.99 -55.44,38.98 -92.68,38.98 -37.25,0 -68.43,-12.99 -93.55,-38.98zm554.35 140.32l0 -252.92c0,-70.16 43.31,-119.53 108.28,-119.53 59.76,0 99.61,41.57 99.61,116.93l0 255.52 122.13 0 0 -288.43c0,-63.24 -18.19,-111.74 -53.71,-145.52 -35.51,-33.78 -79.68,-51.11 -130.79,-51.11 -66.69,0 -122.99,32.92 -148.11,78.83l0 -65.83 -119.54 0 0 472.06 122.13 0zm551.76 -546.55c28.58,-28.59 28.58,-78.82 0,-106.54 -28.59,-28.59 -78.82,-28.59 -107.41,0 -28.58,27.72 -28.58,77.95 0,106.54 28.59,28.58 78.82,28.58 107.41,0zm6.93 74.49l-122.13 0 0 472.06 122.13 0 0 -472.06zm414.03 348.2c-28.59,16.45 -55.44,24.25 -78.82,24.25 -44.18,0 -66.7,-27.72 -66.7,-83.15l0 -187.09 155.91 0 0 -102.21 -155.91 0 0 -168.04 -121.26 0 0 168.04 -77.96 0 0 102.21 77.09 0 0 194.88c0,122.13 56.3,186.23 164.57,186.23 54.57,0 100.48,-12.99 139.46,-38.98l-36.38 -96.14zm62.36 -112.6c0,70.16 23.38,129.05 71.02,176.69 47.64,47.64 108.27,71.9 181.9,71.9 73.62,0 134.25,-24.26 181.89,-71.9 47.64,-47.64 71.03,-106.53 71.03,-176.69 0,-69.3 -23.39,-128.2 -71.03,-175.84 -47.64,-48.5 -108.27,-72.76 -181.89,-72.76 -73.63,0 -134.26,24.26 -181.9,72.76 -47.64,47.64 -71.02,106.54 -71.02,175.84zm159.37 96.14c-25.12,-26.85 -37.24,-58.9 -37.24,-96.14 0,-37.25 12.12,-69.3 37.24,-95.28 25.12,-25.99 56.3,-38.98 93.55,-38.98 37.24,0 67.56,12.99 92.68,38.98 25.12,25.98 38.11,58.03 38.11,95.28 0,37.24 -12.99,69.29 -38.11,96.14 -25.12,25.99 -55.44,38.98 -92.68,38.98 -37.25,0 -68.43,-12.99 -93.55,-38.98zm554.35 140.32l0 -224.34c0,-97.88 45.91,-142.92 115.21,-142.92 17.32,0 36.37,3.47 56.3,9.53l10.39 -116.93c-19.06,-6.93 -38.11,-10.4 -57.17,-10.4 -58.03,0 -101.34,25.12 -129.92,76.23l0 -63.23 -116.94 0 0 472.06 122.13 0zm585.54 -415.76c-41.58,-45.91 -91.82,-68.43 -150.72,-68.43 -66.69,0 -122.99,23.39 -167.17,70.16 -44.17,45.91 -66.69,104.81 -66.69,175.83 0,71.03 21.65,130.79 65.82,178.43 44.18,47.64 100.48,71.03 168.04,71.03 59.77,0 110.01,-21.65 150.72,-65.83l0 54.57 116.06 0 0 -472.06 -116.06 0 0 56.3zm1.73 179.3c0,38.11 -12.99,70.16 -38.11,97.01 -25.12,26.85 -56.3,39.84 -94.42,39.84 -38.11,0 -69.29,-12.99 -94.41,-39.84 -25.12,-26.85 -37.24,-58.9 -37.24,-97.01 0,-37.25 12.12,-69.3 36.38,-96.15 25.11,-26.85 56.3,-39.84 95.27,-39.84 38.12,0 69.3,12.99 94.42,39.84 25.12,26.85 38.11,58.9 38.11,96.15l0 0zm795.14 -248.6c-70.16,0 -134.26,31.19 -168.9,83.16 -25.12,-54.57 -79.69,-83.16 -138.59,-83.16 -61.5,-0.86 -116.93,31.19 -143.78,80.56l0 -67.56 -119.54 0 0 472.06 122.13 0 0 -258.12c0,-70.16 43.31,-114.33 103.08,-114.33 58.03,0 95.28,40.71 95.28,110.87l0 261.58 122.13 0 0 -258.98c0,-69.3 42.44,-113.47 103.94,-113.47 56.3,0 94.41,38.11 94.41,110l0 262.45 122.13 0 0 -284.97c0,-63.23 -18.19,-111.74 -54.57,-147.25 -35.51,-35.51 -81.42,-52.84 -137.72,-52.84zm755.3 238.2c0,-73.62 -22.52,-130.79 -66.7,-173.23 -44.17,-42.44 -101.34,-64.1 -169.77,-64.1 -72.75,0 -131.65,23.39 -177.56,70.16 -45.91,46.77 -68.43,105.67 -68.43,177.57 0,68.42 21.66,127.32 65.83,174.96 44.18,47.64 107.41,71.89 190.56,71.89 77.95,0 146.38,-21.65 206.15,-64.96l-48.51 -85.75c-40.71,27.72 -101.34,47.64 -152.44,47.64 -74.5,0 -120.4,-33.78 -137.73,-100.48l354.27 0c2.6,-19.05 4.33,-37.24 4.33,-53.7zm-236.47 -135.99c62.37,0 106.54,37.25 117.8,98.75l-239.93 0c14.73,-61.5 60.64,-98.75 122.13,-98.75zm442.61 382.85l0 -252.92c0,-70.16 43.31,-119.53 108.28,-119.53 59.76,0 99.61,41.57 99.61,116.93l0 255.52 122.13 0 0 -288.43c0,-63.24 -18.19,-111.74 -53.71,-145.52 -35.51,-33.78 -79.68,-51.11 -130.79,-51.11 -66.69,0 -122.99,32.92 -148.11,78.83l0 -65.83 -119.54 0 0 472.06 122.13 0zm734.52 -123.86c-28.59,16.45 -55.44,24.25 -78.82,24.25 -44.18,0 -66.7,-27.72 -66.7,-83.15l0 -187.09 155.91 0 0 -102.21 -155.91 0 0 -168.04 -121.26 0 0 168.04 -77.96 0 0 102.21 77.09 0 0 194.88c0,122.13 56.3,186.23 164.57,186.23 54.57,0 100.48,-12.99 139.46,-38.98l-36.38 -96.14zm62.36 -112.6c0,70.16 23.38,129.05 71.02,176.69 47.64,47.64 108.27,71.9 181.9,71.9 73.62,0 134.25,-24.26 181.89,-71.9 47.64,-47.64 71.03,-106.53 71.03,-176.69 0,-69.3 -23.39,-128.2 -71.03,-175.84 -47.64,-48.5 -108.27,-72.76 -181.89,-72.76 -73.63,0 -134.26,24.26 -181.9,72.76 -47.64,47.64 -71.02,106.54 -71.02,175.84zm159.37 96.14c-25.12,-26.85 -37.24,-58.9 -37.24,-96.14 0,-37.25 12.12,-69.3 37.24,-95.28 25.12,-25.99 56.3,-38.98 93.55,-38.98 37.24,0 67.56,12.99 92.68,38.98 25.12,25.98 38.11,58.03 38.11,95.28 0,37.24 -12.99,69.29 -38.11,96.14 -25.12,25.99 -55.44,38.98 -92.68,38.98 -37.25,0 -68.43,-12.99 -93.55,-38.98zm-11175.29 890.86c0,-73.62 -22.52,-130.79 -66.7,-173.23 -44.17,-42.44 -101.34,-64.1 -169.77,-64.1 -72.75,0 -131.65,23.39 -177.56,70.16 -45.91,46.77 -68.43,105.67 -68.43,177.57 0,68.42 21.66,127.32 65.83,174.96 44.18,47.64 107.41,71.89 190.56,71.89 77.95,0 146.38,-21.65 206.15,-64.96l-48.51 -85.75c-40.71,27.72 -101.34,47.64 -152.44,47.64 -74.5,0 -120.4,-33.78 -137.73,-100.48l354.27 0c2.6,-19.05 4.33,-37.24 4.33,-53.7zm-236.47 -135.99c62.37,0 106.54,37.25 117.8,98.75l-239.93 0c14.73,-61.5 60.64,-98.75 122.13,-98.75zm893.89 -32.91c-41.58,-45.91 -91.82,-68.43 -150.72,-68.43 -66.69,0 -122.99,23.39 -167.17,70.16 -44.17,45.91 -66.69,104.81 -66.69,175.83 0,71.03 21.65,130.79 65.82,178.43 44.18,47.64 100.48,71.03 168.04,71.03 59.77,0 110.01,-21.65 150.72,-65.83l0 54.57 116.06 0 0 -472.06 -116.06 0 0 56.3zm1.73 179.3c0,38.11 -12.99,70.16 -38.11,97.01 -25.12,26.85 -56.3,39.84 -94.42,39.84 -38.11,0 -69.29,-12.99 -94.41,-39.84 -25.12,-26.85 -37.24,-58.9 -37.24,-97.01 0,-37.25 12.12,-69.3 36.38,-96.15 25.11,-26.85 56.3,-39.84 95.27,-39.84 38.12,0 69.3,12.99 94.42,39.84 25.12,26.85 38.11,58.9 38.11,96.15l0 0zm346.46 236.46l0 -252.92c0,-70.16 43.31,-119.53 108.28,-119.53 59.76,0 99.61,41.57 99.61,116.93l0 255.52 122.13 0 0 -288.43c0,-63.24 -18.19,-111.74 -53.71,-145.52 -35.51,-33.78 -79.68,-51.11 -130.79,-51.11 -66.69,0 -122.99,32.92 -148.11,78.83l0 -65.83 -119.54 0 0 472.06 122.13 0zm669.56 -694.67l-53.71 152.45 108.28 0 81.42 -152.45 -135.99 0zm124.73 278.91c-41.58,-45.91 -91.82,-68.43 -150.72,-68.43 -66.69,0 -122.99,23.39 -167.17,70.16 -44.17,45.91 -66.69,104.81 -66.69,175.83 0,71.03 21.65,130.79 65.82,178.43 44.18,47.64 100.48,71.03 168.04,71.03 59.77,0 110.01,-21.65 150.72,-65.83l0 54.57 116.06 0 0 -472.06 -116.06 0 0 56.3zm1.73 179.3c0,38.11 -12.99,70.16 -38.11,97.01 -25.12,26.85 -56.3,39.84 -94.42,39.84 -38.11,0 -69.29,-12.99 -94.41,-39.84 -25.12,-26.85 -37.24,-58.9 -37.24,-97.01 0,-37.25 12.12,-69.3 36.38,-96.15 25.11,-26.85 56.3,-39.84 95.27,-39.84 38.12,0 69.3,12.99 94.42,39.84 25.12,26.85 38.11,58.9 38.11,96.15zm348.19 -421.83l-122.13 0 0 658.29 122.13 0 0 -658.29zm226.94 111.74c28.58,-28.59 28.58,-78.82 0,-106.54 -28.59,-28.59 -78.82,-28.59 -107.41,0 -28.58,27.72 -28.58,77.95 0,106.54 28.59,28.58 78.82,28.58 107.41,0zm6.93 74.49l-122.13 0 0 472.06 122.13 0 0 -472.06zm266.78 484.19c56.3,0 102.21,-13.86 135.99,-42.45 34.64,-28.58 51.97,-64.96 51.97,-109.13 0,-51.97 -26.85,-91.82 -79.69,-119.53 -12.99,-6.93 -51.1,-22.53 -113.47,-45.91 -27.72,-9.53 -41.58,-23.39 -41.58,-43.31 0,-21.65 21.66,-39.84 53.71,-39.84 38.97,0 75.35,15.59 108.27,46.77l60.63 -78.82c-43.31,-45.04 -98.74,-67.56 -165.44,-67.56 -52.83,0 -96.14,12.99 -128.19,39.84 -32.05,26.85 -48.51,60.63 -48.51,102.21 0,55.43 26.85,96.14 81.42,122.13 10.4,5.2 30.32,13.86 60.64,25.12 30.31,11.26 48.5,18.19 56.3,21.65 22.52,10.4 33.78,24.25 33.78,40.71 0,26.85 -27.72,45.91 -64.97,45.91 -47.64,0 -97.01,-25.12 -130.79,-65.83l-64.96 77.09c47.64,60.63 112.6,90.95 194.89,90.95zm728.45 -258.99c0,-73.62 -22.52,-130.79 -66.7,-173.23 -44.17,-42.44 -101.34,-64.1 -169.77,-64.1 -72.75,0 -131.65,23.39 -177.56,70.16 -45.91,46.77 -68.43,105.67 -68.43,177.57 0,68.42 21.66,127.32 65.83,174.96 44.18,47.64 107.41,71.89 190.56,71.89 77.95,0 146.38,-21.65 206.15,-64.96l-48.51 -85.75c-40.71,27.72 -101.34,47.64 -152.44,47.64 -74.5,0 -120.4,-33.78 -137.73,-100.48l354.27 0c2.6,-19.05 4.33,-37.24 4.33,-53.7zm-236.47 -135.99c62.37,0 106.54,37.25 117.8,98.75l-239.93 0c14.73,-61.5 60.64,-98.75 122.13,-98.75zm886.96 -34.64c-38.98,-44.18 -86.62,-66.7 -143.79,-66.7 -66.69,0 -122.13,23.39 -167.17,71.03 -44.17,47.64 -66.69,106.54 -66.69,176.7 0,71.02 22.52,129.92 66.69,177.56 44.18,46.77 100.48,70.16 167.17,70.16 59.77,0 108.27,-23.39 146.38,-69.29l0 58.03 119.54 0 0 -658.29 -122.13 0 0 240.8zm6.06 181.03c0,38.97 -12.13,71.02 -36.38,97.87 -24.25,25.99 -55.43,38.98 -94.41,38.98 -38.98,0 -70.16,-12.99 -95.28,-38.98 -24.25,-26.85 -36.38,-58.9 -36.38,-97.87 0,-38.12 12.13,-70.16 36.38,-96.15 25.12,-26.85 56.3,-39.84 95.28,-39.84 38.98,0 70.16,12.99 94.41,39.84 24.25,25.99 36.38,58.03 36.38,96.15zm685.14 -10.4c0,-73.62 -22.52,-130.79 -66.7,-173.23 -44.17,-42.44 -101.34,-64.1 -169.77,-64.1 -72.75,0 -131.65,23.39 -177.56,70.16 -45.91,46.77 -68.43,105.67 -68.43,177.57 0,68.42 21.66,127.32 65.83,174.96 44.18,47.64 107.41,71.89 190.56,71.89 77.95,0 146.38,-21.65 206.15,-64.96l-48.51 -85.75c-40.71,27.72 -101.34,47.64 -152.44,47.64 -74.5,0 -120.4,-33.78 -137.73,-100.48l354.27 0c2.6,-19.05 4.33,-37.24 4.33,-53.7zm-236.47 -135.99c62.37,0 106.54,37.25 117.8,98.75l-239.93 0c14.73,-61.5 60.64,-98.75 122.13,-98.75zm656.55 382.85l0 -224.34c0,-97.88 45.91,-142.92 115.21,-142.92 17.32,0 36.37,3.47 56.3,9.53l10.39 -116.93c-19.06,-6.93 -38.11,-10.4 -57.17,-10.4 -58.03,0 -101.34,25.12 -129.92,76.23l0 -63.23 -116.94 0 0 472.06 122.13 0zm684.28 -246.86c0,-73.62 -22.52,-130.79 -66.7,-173.23 -44.17,-42.44 -101.34,-64.1 -169.77,-64.1 -72.75,0 -131.65,23.39 -177.56,70.16 -45.91,46.77 -68.43,105.67 -68.43,177.57 0,68.42 21.66,127.32 65.83,174.96 44.18,47.64 107.41,71.89 190.56,71.89 77.95,0 146.38,-21.65 206.15,-64.96l-48.51 -85.75c-40.71,27.72 -101.34,47.64 -152.44,47.64 -74.5,0 -120.4,-33.78 -137.73,-100.48l354.27 0c2.6,-19.05 4.33,-37.24 4.33,-53.7zm-236.47 -135.99c62.37,0 106.54,37.25 117.8,98.75l-239.93 0c14.73,-61.5 60.64,-98.75 122.13,-98.75zm673.02 -34.64c-38.98,-44.18 -86.62,-66.7 -143.79,-66.7 -66.69,0 -122.13,23.39 -167.17,71.03 -44.17,47.64 -66.69,106.54 -66.69,176.7 0,71.02 22.52,129.92 66.69,177.56 44.18,46.77 100.48,70.16 167.17,70.16 59.77,0 108.27,-23.39 146.38,-69.29l0 58.03 119.54 0 0 -658.29 -122.13 0 0 240.8zm6.06 181.03c0,38.97 -12.13,71.02 -36.38,97.87 -24.25,25.99 -55.43,38.98 -94.41,38.98 -38.98,0 -70.16,-12.99 -95.28,-38.98 -24.25,-26.85 -36.38,-58.9 -36.38,-97.87 0,-38.12 12.13,-70.16 36.38,-96.15 25.12,-26.85 56.3,-39.84 95.28,-39.84 38.98,0 70.16,12.99 94.41,39.84 24.25,25.99 36.38,58.03 36.38,96.15zm685.14 -10.4c0,-73.62 -22.52,-130.79 -66.7,-173.23 -44.17,-42.44 -101.34,-64.1 -169.77,-64.1 -72.75,0 -131.65,23.39 -177.56,70.16 -45.91,46.77 -68.43,105.67 -68.43,177.57 0,68.42 21.66,127.32 65.83,174.96 44.18,47.64 107.41,71.89 190.56,71.89 77.95,0 146.38,-21.65 206.15,-64.96l-48.51 -85.75c-40.71,27.72 -101.34,47.64 -152.44,47.64 -74.5,0 -120.4,-33.78 -137.73,-100.48l354.27 0c2.6,-19.05 4.33,-37.24 4.33,-53.7zm-236.47 -135.99c62.37,0 106.54,37.25 117.8,98.75l-239.93 0c14.73,-61.5 60.64,-98.75 122.13,-98.75z" />
    </g>
  </g>
</svg>