<svg xmlns="http://www.w3.org/2000/svg" xml:space="preserve" width="100%" height="100%" version="1.1"
  viewBox="0 0 6764.84 3039.54" xmlns:xlink="http://www.w3.org/1999/xlink">
  <defs>
    <linearGradient id="id0" gradientUnits="userSpaceOnUse" x1="2396.57" y1="54.86" x2="-46.02" y2="2104.43">
      <stop offset="0" style="stop-opacity:1; stop-color:#F56600" />
      <stop offset="0.490196" style="stop-opacity:1; stop-color:#FAB27F" />
      <stop offset="1" style="stop-opacity:1; stop-color:white" />
    </linearGradient>
    <linearGradient id="id1" gradientUnits="userSpaceOnUse" xlink:href="#id0" x1="3310.25" y1="952.17" x2="1366.37"
      y2="1294.92">
    </linearGradient>
    <linearGradient id="id2" gradientUnits="userSpaceOnUse" xlink:href="#id0" x1="125.96" y1="2572.08" x2="2840.92"
      y2="1004.6">
    </linearGradient>
  </defs>
  <g id="Camada_x0020_1">
    <g id="_1930454254176">
      <path class="fil0" style="fill: #F56600;"
        d="M2108.66 814.2l-45.71 0c-117.7,0 -222.09,75.61 -258.78,187.45l-100.77 307.19c-3.75,11.42 -19.89,11.47 -23.71,0.07l-102.62 -306.48c-37.65,-112.44 -142.95,-188.23 -261.53,-188.23l-45.96 0c-22.05,0 -37.15,22.23 -29.02,42.72l291.9 736.23c25.83,65.14 88.8,107.91 158.87,107.91 70.39,0 133.59,-43.16 159.19,-108.74l287.22 -735.55c7.99,-20.47 -7.1,-42.57 -29.08,-42.57z" />
      <path class="fil0" style="fill: #F56600;"
        d="M1247.86 1463.45l-231.16 0c-6.9,0 -12.49,-5.59 -12.49,-12.49l0 -447.18c0,-104.7 -84.88,-189.58 -189.58,-189.58l-31.22 0c-17.24,0 -31.22,13.98 -31.22,31.22l0 824.42c0,17.24 13.98,31.22 31.22,31.22l577.19 0c34.49,0 62.44,-27.95 62.44,-62.43 0,-96.75 -78.43,-175.18 -175.18,-175.18z" />
      <path class="fil1" style="fill: #737373;"
        d="M3200.31 1575.11l0 -463.87 117.45 0 0 64.68c24.69,-45.11 80.01,-77.45 145.55,-77.45 50.22,0 93.62,17.02 128.52,50.21 34.9,33.2 52.77,80.86 52.77,143l0 283.43 -120.01 0 0 -251.09c0,-74.05 -39.15,-114.91 -97.88,-114.91 -63.84,0 -106.39,48.52 -106.39,117.46l0 248.54 -120.01 0zm993.26 -189.81l0 0 -348.11 0c17.02,65.54 62.13,98.73 135.33,98.73 50.22,0 109.8,-19.57 149.8,-46.81l47.66 84.26c-58.72,42.56 -125.97,63.84 -202.57,63.84 -81.71,0 -143.84,-23.83 -187.25,-70.65 -43.41,-46.81 -64.68,-104.69 -64.68,-171.93 0,-70.64 22.13,-128.52 67.23,-174.48 45.12,-45.96 102.99,-68.94 174.49,-68.94 67.24,0 123.41,21.28 166.82,62.98 43.41,41.71 65.54,97.88 65.54,170.23 0,16.17 -1.7,34.05 -4.26,52.77zm-348.11 -89.37l0 0 235.76 0c-11.06,-60.43 -54.47,-97.03 -115.75,-97.03 -60.43,0 -105.54,36.6 -120.01,97.03zm763.46 251.94l0 0c-38.3,25.53 -83.41,38.3 -137.03,38.3 -106.39,0 -161.72,-62.99 -161.72,-183l0 -191.5 -75.75 0 0 -100.43 76.61 0 0 -164.27 119.15 0 0 164.27 153.21 0 0 100.43 -153.21 0 0 183.84c0,54.48 22.13,81.71 65.54,81.71 22.98,0 49.37,-7.66 77.45,-23.83l35.75 94.48zm167.68 26.38l0 0 -158.31 -463.01 125.96 0 92.78 303.85 104.69 -303.85 84.26 0 108.09 303.85 90.22 -303.85 125.97 0 -156.61 463.01 -104.69 0 -104.69 -290.23 -102.98 290.23 -104.69 0zm666.44 -404.29l0 0c46.81,-47.66 106.39,-71.49 178.74,-71.49 72.34,0 131.92,23.83 178.73,71.49 46.82,46.82 69.8,104.69 69.8,172.78 0,68.95 -22.98,126.82 -69.8,173.63 -46.81,46.82 -106.39,70.65 -178.73,70.65 -72.35,0 -131.93,-23.83 -178.74,-70.65 -46.82,-46.81 -69.8,-104.68 -69.8,-173.63 0,-68.09 22.98,-125.96 69.8,-172.78zm178.74 305.56l0 0c36.59,0 66.38,-12.77 91.07,-38.3 24.68,-26.38 37.45,-57.88 37.45,-94.48 0,-36.6 -12.77,-68.09 -37.45,-93.62 -24.69,-25.54 -54.48,-38.3 -91.07,-38.3 -36.6,0 -67.24,12.76 -91.93,38.3 -24.68,25.53 -36.6,57.02 -36.6,93.62 0,36.6 11.92,68.1 36.6,94.48 24.69,25.53 55.33,38.3 91.93,38.3zm332.78 99.59l0 0 0 -463.87 114.91 0 0 62.13c28.08,-50.22 70.64,-74.9 127.67,-74.9 18.72,0 37.45,3.4 56.17,10.21l-10.21 114.9c-19.58,-5.95 -38.3,-9.36 -55.33,-9.36 -68.09,0 -113.2,44.26 -113.2,140.44l0 220.45 -120.01 0zm663.03 0l0 0 -153.2 -198.32 -31.49 28.09 0 170.23 -120.02 0 0 -646.87 120.02 0 0 341.31 168.52 -158.31 151.5 0 -206.82 189.8 218.74 274.07 -147.25 0z" />
      <path class="fil1" style="fill: #737373;"
        d="M3188.73 1996.76l25.54 -30.31c13.28,16.01 32.69,25.88 51.41,25.88 14.64,0 25.54,-7.49 25.54,-18.05 0,-6.46 -4.43,-11.91 -13.28,-16 -3.07,-1.35 -10.22,-4.08 -22.13,-8.51 -11.92,-4.43 -19.75,-7.83 -23.84,-9.87 -21.45,-10.22 -32,-26.22 -32,-48.01 0,-16.34 6.47,-29.62 19.07,-40.17 12.6,-10.56 29.62,-15.67 50.39,-15.67 26.21,0 48.01,8.86 65.03,26.56l-23.83 30.99c-12.94,-12.27 -27.25,-18.4 -42.57,-18.4 -12.59,0 -21.1,7.16 -21.1,15.67 0,7.83 5.44,13.28 16.34,17.02 24.51,9.19 39.49,15.32 44.6,18.05 20.77,10.89 31.32,26.56 31.32,46.99 0,17.36 -6.8,31.66 -20.42,42.9 -13.28,11.23 -31.33,16.67 -53.46,16.67 -32.35,0 -57.88,-11.91 -76.61,-35.74z" />
      <path class="fil1" style="fill: #737373;"
        d="M3398.11 1865.68c18.73,-19.07 42.56,-28.61 71.5,-28.61 28.94,0 52.78,9.54 71.5,28.61 18.73,18.72 27.91,41.87 27.91,69.11 0,27.58 -9.18,50.73 -27.91,69.45 -18.72,18.73 -42.56,28.26 -71.5,28.26 -28.94,0 -52.77,-9.53 -71.5,-28.26 -18.73,-18.72 -27.92,-41.87 -27.92,-69.45 0,-27.24 9.19,-50.39 27.92,-69.11zm71.5 122.22l0 0c14.64,0 26.56,-5.11 36.43,-15.32 9.88,-10.55 14.98,-23.15 14.98,-37.79 0,-14.64 -5.1,-27.24 -14.98,-37.46 -9.87,-10.21 -21.79,-15.32 -36.43,-15.32 -14.64,0 -26.9,5.11 -36.77,15.32 -9.88,10.22 -14.64,22.82 -14.64,37.46 0,14.64 4.76,27.24 14.64,37.79 9.87,10.21 22.13,15.32 36.77,15.32z" />
      <polygon class="fil1" style="fill: #737373;"
        points="3659.24,2027.74 3611.23,2027.74 3611.23,1768.98 3659.24,1768.98 " />
      <path class="fil1" style="fill: #737373;"
        d="M3708.6 1949.43l0 -107.25 48 0 0 107.25c0,23.5 13.97,38.81 37.12,38.81 23.15,0 37.11,-15.31 37.11,-38.81l0 -107.25 48 0 0 107.25c0,52.09 -32,82.74 -85.11,82.74 -52.78,0 -85.12,-30.65 -85.12,-82.74z" />
      <path class="fil1" style="fill: #737373;"
        d="M4065.4 1959.98l38.82 22.81c-13.96,26.23 -41.2,44.27 -73.88,48.36l-5.45 12.94c20.43,1.01 36.77,13.62 36.77,34.04 0,21.79 -18.39,40.86 -49.71,40.86 -13.28,0 -27.58,-3.41 -42.22,-10.56l10.55 -27.58c9.54,4.77 18.73,7.15 27.59,7.15 11.91,0 17.7,-5.78 17.7,-12.94 0,-7.83 -6.47,-11.57 -19.07,-11.57l-18.38 0 -2.73 -9.19 9.87 -24.52c-23.15,-4.42 -41.87,-15.32 -55.83,-32.35 -13.96,-17.36 -20.77,-38.12 -20.77,-62.64 0,-28.26 9.19,-51.75 27.92,-69.8 18.72,-18.38 42.55,-27.58 71.84,-27.58 37.79,0 71.16,18.73 86.48,51.76l-38.47 21.1c-11.24,-18.72 -27.24,-28.26 -47.33,-28.26 -15.32,0 -27.92,5.11 -37.79,15.32 -9.88,9.88 -14.98,22.48 -14.98,37.46 0,15.32 4.76,27.92 14.64,38.14 9.87,9.86 22.47,14.97 37.11,14.97 19.4,0 39.15,-11.57 47.32,-27.92z" />
      <path class="fil1" style="fill: #737373;"
        d="M4159.7 1865.68c18.73,-19.07 42.56,-28.61 71.5,-28.61 28.94,0 52.77,9.54 71.5,28.61 18.73,18.72 27.92,41.87 27.92,69.11 0,27.58 -9.19,50.73 -27.92,69.45 -18.73,18.73 -42.56,28.26 -71.5,28.26 -28.94,0 -52.77,-9.53 -71.5,-28.26 -18.72,-18.72 -27.92,-41.87 -27.92,-69.45 0,-27.24 9.2,-50.39 27.92,-69.11zm-0.34 -64.7l0 0c11.24,-26.21 27.58,-39.15 49.03,-39.15 7.49,0 16,2.38 25.53,7.49 9.87,4.76 16.34,7.15 20.09,7.15 7.83,0 14.3,-5.45 20.09,-16l30.3 14.3c-9.19,24.85 -25.87,39.15 -45.96,39.15 -7.15,0 -15.66,-2.38 -25.53,-7.49 -9.88,-5.1 -16.69,-7.83 -21.12,-7.83 -8.51,0 -16,5.79 -21.79,17.36l-30.64 -14.98zm71.84 186.92l0 0c14.64,0 26.56,-5.11 36.43,-15.32 9.87,-10.55 14.98,-23.15 14.98,-37.79 0,-14.64 -5.11,-27.24 -14.98,-37.46 -9.87,-10.21 -21.79,-15.32 -36.43,-15.32 -14.64,0 -26.89,5.11 -36.77,15.32 -9.87,10.22 -14.64,22.82 -14.64,37.46 0,14.64 4.77,27.24 14.64,37.79 9.88,10.21 22.13,15.32 36.77,15.32z" />
      <path class="fil1" style="fill: #737373;"
        d="M4551.23 1951.81l-139.25 0c6.8,26.22 24.85,39.5 54.13,39.5 20.09,0 43.92,-7.83 59.92,-18.73l19.07 33.71c-23.49,17.02 -50.39,25.54 -81.03,25.54 -32.69,0 -57.54,-9.54 -74.9,-28.26 -17.37,-18.73 -25.88,-41.88 -25.88,-68.78 0,-28.26 8.85,-51.41 26.89,-69.8 18.05,-18.38 41.2,-27.58 69.8,-27.58 26.9,0 49.37,8.52 66.74,25.2 17.36,16.68 26.21,39.15 26.21,68.09 0,6.48 -0.68,13.62 -1.7,21.11zm-139.25 -35.74l0 0 94.3 0c-4.42,-24.18 -21.79,-38.82 -46.3,-38.82 -24.17,0 -42.21,14.64 -48,38.82z" />
      <path class="fil1" style="fill: #737373;"
        d="M4578.8 1996.76l25.53 -30.31c13.28,16.01 32.68,25.88 51.41,25.88 14.64,0 25.54,-7.49 25.54,-18.05 0,-6.46 -4.43,-11.91 -13.28,-16 -3.06,-1.35 -10.21,-4.08 -22.13,-8.51 -11.92,-4.43 -19.75,-7.83 -23.84,-9.87 -21.44,-10.22 -32,-26.22 -32,-48.01 0,-16.34 6.47,-29.62 19.07,-40.17 12.59,-10.56 29.62,-15.67 50.39,-15.67 26.21,0 48,8.86 65.02,26.56l-23.83 30.99c-12.93,-12.27 -27.23,-18.4 -42.55,-18.4 -12.6,0 -21.12,7.16 -21.12,15.67 0,7.83 5.46,13.28 16.35,17.02 24.52,9.19 39.5,15.32 44.6,18.05 20.77,10.89 31.32,26.56 31.32,46.99 0,17.36 -6.81,31.66 -20.42,42.9 -13.28,11.23 -31.33,16.67 -53.46,16.67 -32.34,0 -57.88,-11.91 -76.6,-35.74z" />
      <path class="fil1" style="fill: #737373;"
        d="M5041.82 1951.81l-139.26 0c6.81,26.22 24.86,39.5 54.13,39.5 20.09,0 43.93,-7.83 59.93,-18.73l19.07 33.71c-23.49,17.02 -50.39,25.54 -81.04,25.54 -32.68,0 -57.53,-9.54 -74.9,-28.26 -17.36,-18.73 -25.88,-41.88 -25.88,-68.78 0,-28.26 8.85,-51.41 26.9,-69.8 18.05,-18.38 41.2,-27.58 69.8,-27.58 26.9,0 49.37,8.52 66.74,25.2 17.36,16.68 26.21,39.15 26.21,68.09 0,6.48 -0.68,13.62 -1.7,21.11zm-139.26 -35.74l0 0 94.31 0c-4.42,-24.18 -21.79,-38.82 -46.3,-38.82 -24.18,0 -42.22,14.64 -48.01,38.82z" />
      <path class="fil1" style="fill: #737373;"
        d="M5363.55 1857.84c14.3,13.96 21.45,33.03 21.45,57.89l0 112.01 -48.01 0 0 -103.16c0,-28.26 -14.98,-43.25 -37.11,-43.25 -24.17,0 -40.85,17.37 -40.85,44.61l0 101.8 -48.01 0 0 -102.82c0,-27.59 -14.64,-43.59 -37.45,-43.59 -23.49,0 -40.52,17.37 -40.52,44.95l0 101.46 -48 0 0 -185.56 46.98 0 0 26.56c10.55,-19.41 32.34,-32.01 56.52,-31.67 23.15,0 44.6,11.24 54.47,32.69 13.62,-20.43 38.82,-32.69 66.4,-32.69 22.13,0 40.18,6.81 54.13,20.77z" />
      <path class="fil1" style="fill: #737373;"
        d="M3337.52 2425.39c-15.32,10.21 -33.36,15.32 -54.82,15.32 -42.55,0 -64.69,-25.19 -64.69,-73.2l0 -76.61 -30.3 0 0 -40.17 30.65 0 0 -65.71 47.66 0 0 65.71 61.29 0 0 40.17 -61.29 0 0 73.55c0,21.78 8.85,32.68 26.22,32.68 9.19,0 19.75,-3.07 30.98,-9.53l14.3 37.79z" />
      <path class="fil1" style="fill: #737373;"
        d="M3544.52 2360.36l-139.25 0c6.81,26.22 24.85,39.5 54.13,39.5 20.09,0 43.93,-7.84 59.93,-18.74l19.07 33.72c-23.49,17.02 -50.4,25.53 -81.04,25.53 -32.68,0 -57.54,-9.53 -74.9,-28.26 -17.37,-18.72 -25.88,-41.88 -25.88,-68.77 0,-28.27 8.85,-51.41 26.9,-69.81 18.04,-18.37 41.2,-27.57 69.8,-27.57 26.89,0 49.36,8.51 66.73,25.19 17.36,16.69 26.21,39.16 26.21,68.1 0,6.47 -0.67,13.61 -1.7,21.11zm-139.25 -35.75l0 0 94.31 0c-4.42,-24.17 -21.79,-38.81 -46.3,-38.81 -24.18,0 -42.22,14.64 -48.01,38.81z" />
      <polygon class="fil1" style="fill: #737373;"
        points="3635.75,2436.29 3587.74,2436.29 3587.74,2177.52 3635.75,2177.52 " />
      <path class="fil1" style="fill: #737373;"
        d="M3865.91 2360.36l-139.26 0c6.81,26.22 24.85,39.5 54.14,39.5 20.08,0 43.92,-7.84 59.92,-18.74l19.06 33.72c-23.49,17.02 -50.39,25.53 -81.03,25.53 -32.68,0 -57.54,-9.53 -74.9,-28.26 -17.36,-18.72 -25.88,-41.88 -25.88,-68.77 0,-28.27 8.86,-51.41 26.9,-69.81 18.04,-18.37 41.2,-27.57 69.79,-27.57 26.9,0 49.38,8.51 66.74,25.19 17.36,16.69 26.22,39.16 26.22,68.1 0,6.47 -0.69,13.61 -1.7,21.11zm-139.26 -35.75l0 0 94.31 0c-4.43,-24.17 -21.79,-38.81 -46.31,-38.81 -24.17,0 -42.21,14.64 -48,38.81z" />
      <path class="fil1" style="fill: #737373;"
        d="M3926.84 2413.14c-18.39,-18.05 -27.59,-41.54 -27.59,-69.8 0,-28.27 9.2,-51.76 27.93,-69.81 18.72,-18.37 42.55,-27.57 71.84,-27.57 37.79,0 71.15,18.72 86.47,51.75l-38.46 21.11c-11.24,-18.73 -27.25,-28.26 -47.34,-28.26 -15.32,0 -27.91,5.11 -37.79,15.32 -9.87,9.88 -14.98,22.47 -14.98,37.46 0,15.32 4.77,27.92 14.65,38.13 9.86,9.87 22.47,14.98 37.11,14.98 19.4,0 39.15,-11.58 47.32,-27.92l38.81 22.81c-15.99,29.96 -49.02,49.03 -87.16,49.03 -28.94,0 -52.43,-9.19 -70.81,-27.23z" />
      <path class="fil1" style="fill: #737373;"
        d="M4140.3 2274.22c18.72,-19.06 42.55,-28.6 71.5,-28.6 28.94,0 52.77,9.54 71.49,28.6 18.74,18.73 27.92,41.88 27.92,69.12 0,27.57 -9.18,50.72 -27.92,69.45 -18.72,18.72 -42.55,28.26 -71.49,28.26 -28.95,0 -52.78,-9.54 -71.5,-28.26 -18.73,-18.73 -27.92,-41.88 -27.92,-69.45 0,-27.24 9.19,-50.39 27.92,-69.12zm71.5 122.23l0 0c14.64,0 26.56,-5.11 36.42,-15.33 9.88,-10.54 14.98,-23.14 14.98,-37.78 0,-14.64 -5.1,-27.24 -14.98,-37.46 -9.86,-10.21 -21.78,-15.32 -36.42,-15.32 -14.64,0 -26.9,5.11 -36.77,15.32 -9.88,10.22 -14.64,22.82 -14.64,37.46 0,14.64 4.76,27.24 14.64,37.78 9.87,10.22 22.13,15.33 36.77,15.33z" />
      <path class="fil1" style="fill: #737373;"
        d="M4631.93 2266.39c14.29,13.95 21.45,33.03 21.45,57.88l0 112.02 -48.01 0 0 -103.17c0,-28.26 -14.98,-43.24 -37.11,-43.24 -24.17,0 -40.86,17.37 -40.86,44.6l0 101.81 -48.01 0 0 -102.83c0,-27.58 -14.64,-43.58 -37.45,-43.58 -23.49,0 -40.52,17.37 -40.52,44.94l0 101.47 -48 0 0 -185.56 46.98 0 0 26.55c10.56,-19.4 32.35,-32 56.52,-31.66 23.15,0 44.6,11.24 54.48,32.69 13.62,-20.43 38.81,-32.69 66.39,-32.69 22.13,0 40.18,6.81 54.14,20.77z" />
      <path class="fil1" style="fill: #737373;"
        d="M4700.68 2357.98l0 -107.25 48.01 0 0 107.25c0,23.49 13.95,38.81 37.11,38.81 23.15,0 37.11,-15.32 37.11,-38.81l0 -107.25 48.01 0 0 107.25c0,52.09 -32.01,82.73 -85.12,82.73 -52.77,0 -85.12,-30.64 -85.12,-82.73z" />
      <path class="fil1" style="fill: #737373;"
        d="M4920.61 2436.29l0 -185.56 46.99 0 0 25.87c9.87,-18.04 32.01,-30.98 58.22,-30.98 20.09,0 37.45,6.81 51.41,20.08 13.96,13.29 21.11,32.35 21.11,57.21l0 113.38 -48.01 0 0 -100.45c0,-29.61 -15.66,-45.96 -39.15,-45.96 -25.53,0 -42.56,19.4 -42.56,46.99l0 99.42 -48.01 0z" />
      <path class="fil1" style="fill: #737373;"
        d="M5151.78 2221.44c-11.24,-11.24 -11.24,-30.98 0,-41.88 11.24,-11.23 30.98,-11.23 42.22,0 11.23,10.9 11.23,30.64 0,41.88 -11.24,11.24 -30.98,11.24 -42.22,0zm44.94 214.85l0 0 -48.01 0 0 -185.56 48.01 0 0 185.56z" />
      <path class="fil1" style="fill: #737373;"
        d="M5265.83 2413.14c-18.39,-18.05 -27.58,-41.54 -27.58,-69.8 0,-28.27 9.19,-51.76 27.92,-69.81 18.73,-18.37 42.56,-27.57 71.84,-27.57 37.79,0 71.16,18.72 86.48,51.75l-38.47 21.11c-11.24,-18.73 -27.24,-28.26 -47.33,-28.26 -15.32,0 -27.92,5.11 -37.79,15.32 -9.87,9.88 -14.98,22.47 -14.98,37.46 0,15.32 4.77,27.92 14.64,38.13 9.87,9.87 22.47,14.98 37.11,14.98 19.4,0 39.15,-11.58 47.33,-27.92l38.81 22.81c-16,29.96 -49.03,49.03 -87.16,49.03 -28.94,0 -52.43,-9.19 -70.82,-27.23z" />
      <path class="fil1" style="fill: #737373;"
        d="M5602.55 2250.73l45.62 0 0 185.56 -45.62 0 0 -21.45c-16,17.36 -35.75,25.87 -59.24,25.87 -26.56,0 -48.69,-9.2 -66.06,-27.92 -17.36,-18.73 -25.87,-42.21 -25.87,-70.14 0,-27.91 8.85,-51.07 26.22,-69.12 17.36,-18.37 39.49,-27.57 65.71,-27.57 23.15,0 42.9,8.85 59.24,26.9l0 -22.13zm-14.3 54.82l0 0c-9.87,-10.56 -22.13,-15.67 -37.12,-15.67 -15.31,0 -27.57,5.11 -37.45,15.67 -9.53,10.55 -14.29,23.15 -14.29,37.79 0,14.98 4.76,27.57 14.63,38.13 9.88,10.55 22.13,15.66 37.11,15.66 14.99,0 27.25,-5.11 37.12,-15.66 9.87,-10.56 14.98,-23.15 14.98,-38.13 0,-14.64 -5.11,-27.24 -14.98,-37.79z" />
      <path class="fil1" style="fill: #737373;"
        d="M5836.78 2368.53l38.81 22.81c-13.96,26.22 -41.2,44.26 -73.88,48.35l-5.45 12.94c20.43,1.02 36.77,13.62 36.77,34.05 0,21.78 -18.38,40.85 -49.71,40.85 -13.28,0 -27.57,-3.4 -42.22,-10.56l10.56 -27.57c9.53,4.77 18.72,7.15 27.58,7.15 11.91,0 17.7,-5.79 17.7,-12.94 0,-7.83 -6.47,-11.57 -19.06,-11.57l-18.39 0 -2.73 -9.19 9.88 -24.53c-23.16,-4.42 -41.88,-15.32 -55.84,-32.34 -13.96,-17.36 -20.77,-38.13 -20.77,-62.64 0,-28.27 9.2,-51.76 27.92,-69.81 18.73,-18.37 42.56,-27.57 71.84,-27.57 37.79,0 71.16,18.72 86.48,51.75l-38.47 21.11c-11.24,-18.73 -27.24,-28.26 -47.33,-28.26 -15.32,0 -27.91,5.11 -37.79,15.32 -9.87,9.88 -14.98,22.47 -14.98,37.46 0,15.32 4.77,27.92 14.64,38.13 9.87,9.87 22.47,14.98 37.11,14.98 19.41,0 39.16,-11.58 47.33,-27.92z" />
      <path class="fil1" style="fill: #737373;"
        d="M5931.08 2274.22c18.73,-19.06 42.56,-28.6 71.5,-28.6 28.93,0 52.77,9.54 71.5,28.6 18.72,18.73 27.91,41.88 27.91,69.12 0,27.57 -9.19,50.72 -27.91,69.45 -18.73,18.72 -42.57,28.26 -71.5,28.26 -28.94,0 -52.77,-9.54 -71.5,-28.26 -18.73,-18.73 -27.92,-41.88 -27.92,-69.45 0,-27.24 9.19,-50.39 27.92,-69.12zm-0.35 -64.69l0 0c11.24,-26.22 27.59,-39.16 49.04,-39.16 7.49,0 16,2.39 25.53,7.49 9.88,4.77 16.35,7.16 20.09,7.16 7.83,0 14.3,-5.46 20.09,-16.01l30.3 14.3c-9.19,24.86 -25.88,39.16 -45.97,39.16 -7.14,0 -15.66,-2.38 -25.53,-7.49 -9.88,-5.11 -16.69,-7.83 -21.11,-7.83 -8.51,0 -16,5.78 -21.79,17.36l-30.65 -14.98zm71.85 186.92l0 0c14.64,0 26.55,-5.11 36.43,-15.33 9.87,-10.54 14.98,-23.14 14.98,-37.78 0,-14.64 -5.11,-27.24 -14.98,-37.46 -9.88,-10.21 -21.79,-15.32 -36.43,-15.32 -14.65,0 -26.9,5.11 -36.77,15.32 -9.88,10.22 -14.64,22.82 -14.64,37.46 0,14.64 4.76,27.24 14.64,37.78 9.87,10.22 22.12,15.33 36.77,15.33z" />
      <path class="fil1" style="fill: #737373;"
        d="M6322.6 2360.36l-139.25 0c6.81,26.22 24.86,39.5 54.13,39.5 20.09,0 43.93,-7.84 59.93,-18.74l19.07 33.72c-23.49,17.02 -50.4,25.53 -81.04,25.53 -32.68,0 -57.54,-9.53 -74.9,-28.26 -17.37,-18.72 -25.88,-41.88 -25.88,-68.77 0,-28.27 8.85,-51.41 26.9,-69.81 18.05,-18.37 41.2,-27.57 69.8,-27.57 26.9,0 49.36,8.51 66.73,25.19 17.37,16.69 26.22,39.16 26.22,68.1 0,6.47 -0.68,13.61 -1.71,21.11zm-139.25 -35.75l0 0 94.31 0c-4.42,-24.17 -21.79,-38.81 -46.3,-38.81 -24.18,0 -42.22,14.64 -48.01,38.81z" />
      <path class="fil1" style="fill: #737373;"
        d="M6350.17 2405.3l25.54 -30.3c13.28,16 32.69,25.87 51.41,25.87 14.64,0 25.54,-7.48 25.54,-18.04 0,-6.47 -4.43,-11.92 -13.28,-16 -3.07,-1.36 -10.22,-4.08 -22.13,-8.51 -11.92,-4.43 -19.75,-7.84 -23.83,-9.88 -21.46,-10.21 -32.01,-26.22 -32.01,-48 0,-16.35 6.47,-29.63 19.06,-40.18 12.61,-10.56 29.63,-15.66 50.39,-15.66 26.22,0 48.01,8.85 65.04,26.55l-23.84 30.99c-12.94,-12.26 -27.24,-18.39 -42.56,-18.39 -12.59,0 -21.1,7.15 -21.1,15.67 0,7.83 5.44,13.28 16.34,17.02 24.51,9.19 39.49,15.32 44.6,18.04 20.77,10.9 31.32,26.56 31.32,46.99 0,17.36 -6.8,31.67 -20.42,42.9 -13.28,11.23 -31.33,16.68 -53.46,16.68 -32.35,0 -57.88,-11.92 -76.61,-35.75z" />
      <path class="fil2" style="fill: url(#id0);"
        d="M2350.56 1259.93c0,-8.64 -0.13,-17.83 -0.39,-28.94 -0.83,-26.14 -2.89,-53.01 -6.12,-79.79 -23.41,-264.28 -133.48,-520.46 -309.93,-721.35 -137.89,-156.99 -311.92,-276.25 -504.05,-345.67 -415.86,-65.75 -838.32,-93.13 -1265.8,-81.61 -162.6,4.38 -285.2,150.49 -261.28,311.39 87.03,585.4 245.62,1148.45 474.13,1685.08l1.79 -0.75c-148.36,-361.01 -85.36,-797.08 164.43,-1138.15l0.04 0.02c60,-81.93 129.34,-156.07 206.09,-220.33l1.81 -1.51c7.02,-5.86 14.11,-11.63 21.27,-17.33l2.55 -2.04c6.17,-4.88 12.41,-9.68 18.68,-14.45 9.1,-7.71 18.35,-15.25 27.77,-22.58l-0.18 -0.24 0.25 0.19c145.41,-113.1 328.13,-180.48 526.61,-180.48 474.15,0 858.52,384.36 858.52,858.51 0,474.14 -384.37,858.51 -858.52,858.51 -108.56,0 -212.39,-20.2 -308,-56.96 120.88,52.31 251.98,85.76 385.73,97.83 118.81,-10.15 232.52,-43.1 337.97,-97.92l-0.04 -0.08c300.24,-156.75 486.67,-463.61 486.67,-801.35z" />
      <path class="fil3" style="fill: url(#id2);"
        d="M2570.51 1726.45c-167.73,217.31 -412.18,357.57 -678.62,411.33 -2.68,0.54 -5.37,1.11 -8.06,1.63 -3.79,0.74 -7.59,1.41 -11.39,2.11 -5.53,1.02 -11.05,2.05 -16.6,3 -1.31,0.22 -2.63,0.42 -3.95,0.64 -51.39,8.59 -103.44,14.04 -155.75,16.28 -1.19,0.05 -2.4,0.08 -3.6,0.13 -7.19,0.28 -14.39,0.52 -21.59,0.69 -5.11,0.11 -10.22,0.16 -15.34,0.21 -3.15,0.04 -6.3,0.09 -9.45,0.1 -150.05,0.35 -301.71,-26.08 -446.12,-80.64 -353.12,-106.48 -610.32,-434.19 -610.32,-822.03 0,-303.42 157.41,-570.07 395.02,-722.76 -229.39,142.58 -409.57,362.73 -508.23,621.64 -100.27,263.12 -107.23,543.78 -19.89,791.5 137.57,330.16 301.37,650.46 491.3,959.87 85.1,138.63 272.93,171.75 400.31,70.59 463.71,-368.27 872.2,-787.39 1222.81,-1253.89l-0.53 -0.4zm-2100.92 -543.38l0 0c22.82,-63.87 50.9,-126.13 84.05,-185.98 -33.01,59.81 -61.14,122.07 -84.05,185.98z" />
      <path class="fil4" style="fill: url(#id1);"
        d="M2985.1 482.33c-476.93,-188.3 -966.2,-321.61 -1464.95,-399.71l-0.46 1.79c60.91,21.43 120.83,48.24 178.09,79.7l0.58 0.2c220.46,40.86 440.55,92.98 654.16,154.88 302.56,735.11 77.32,1294.26 -234.43,1572.5 -77.68,69.34 -163.74,125.26 -255.82,166.23l-0.02 -0.04 -1.95 0.92 0.03 0.08c-104.47,54.02 -217.5,88.15 -334.77,98.2 -0.03,0 -0.03,0 -0.03,0 38.52,4.11 76.98,7.39 115.61,7.39 148.09,0 295.28,-25.56 432.39,-75.62 177.66,-64.87 333.71,-169.65 453.43,-304.05 221.77,-288.61 421.12,-595.67 597.17,-920.5 77.5,-143.02 12.27,-322.24 -139.03,-381.97zm-961.21 1546.96l0 0c45,-29.3 88.21,-62.39 128.91,-98.71 198.15,-176.87 327.88,-418.92 375.16,-700 46.39,-275.85 7.71,-584.4 -111.86,-892.54 117.19,35.19 235.33,74.17 351.21,115.88 52.73,442.86 -156.23,1131.03 -586.29,1471.84 -50.26,39.84 -102.96,74.55 -157.13,103.53zm1056.15 -1188.88l0 0c-163.95,302.5 -351.18,593.84 -556.48,865.89 -106.6,135.22 -243.49,246.36 -397.47,322.99 29.87,-19.35 59.13,-40.36 87.3,-62.69 221.28,-175.35 403.23,-450.38 512.35,-774.41 83.38,-247.59 117.52,-502.57 96.22,-718.45 48.82,18.03 97.5,36.63 144.75,55.28 58.76,23.2 104.9,70.68 126.58,130.24 21.68,59.57 16.85,125.59 -13.25,181.15z" />
    </g>
  </g>
</svg>